<?xml version="1.0" standalone="no"?>
<!DOCTYPE svg PUBLIC "-//W3C//DTD SVG 20010904//EN"
 "http://www.w3.org/TR/2001/REC-SVG-20010904/DTD/svg10.dtd">
<svg version="1.0" xmlns="http://www.w3.org/2000/svg"
 width="3328.000000pt" height="3328.000000pt" viewBox="0 0 3328.000000 3328.000000"
 preserveAspectRatio="xMidYMid meet">
<metadata>
Created by potrace 1.14, written by Peter Selinger 2001-2017
</metadata>
<g transform="translate(0.000000,3328.000000) scale(0.100000,-0.100000)"
fill="#000000" stroke="none">
<path d="M28709 21076 c-2 -2 -47 -7 -99 -10 -52 -4 -102 -9 -110 -11 -15 -4
-93 -15 -140 -20 -14 -1 -38 -5 -55 -9 -36 -8 -56 -11 -115 -21 -25 -4 -54 -9
-65 -12 -11 -2 -29 -6 -40 -8 -11 -2 -31 -6 -45 -9 -14 -3 -35 -8 -47 -11 -13
-3 -33 -8 -45 -11 -13 -3 -32 -7 -44 -8 -11 -1 -24 -5 -30 -8 -5 -3 -22 -9
-39 -13 -16 -5 -34 -9 -40 -11 -34 -9 -175 -54 -200 -64 -16 -6 -31 -11 -32
-11 -5 1 -37 -11 -68 -24 -16 -7 -41 -16 -54 -20 -13 -4 -40 -14 -60 -23 -20
-9 -38 -16 -41 -17 -77 -22 -528 -252 -560 -285 -3 -3 -14 -10 -25 -16 -48
-26 -70 -39 -75 -44 -3 -3 -34 -25 -70 -49 -76 -52 -271 -198 -315 -236 -16
-14 -65 -56 -107 -93 -107 -92 -351 -343 -416 -427 -5 -5 -33 -39 -63 -75 -60
-72 -138 -172 -154 -197 -5 -9 -17 -24 -25 -33 -27 -31 -50 -60 -50 -65 0 -5
-62 -98 -71 -105 -3 -3 -19 -27 -35 -55 -15 -27 -34 -56 -41 -63 -7 -7 -13
-20 -13 -28 0 -8 -4 -14 -10 -14 -5 0 -10 -5 -10 -11 0 -6 -8 -23 -19 -37 -41
-60 -177 -324 -240 -470 -32 -72 -121 -297 -126 -317 -1 -5 -5 -17 -8 -25 -9
-20 -59 -181 -62 -200 -2 -8 -4 -15 -5 -15 -1 0 -3 -7 -5 -15 -2 -8 -16 -60
-30 -115 -27 -105 -28 -106 -40 -170 -5 -22 -10 -47 -12 -55 -4 -18 -10 -53
-18 -100 -3 -19 -10 -48 -15 -63 -7 -20 -6 -26 2 -21 7 4 8 3 4 -4 -8 -14 -15
-43 -20 -92 -12 -112 -18 -158 -22 -180 -23 -134 -22 -615 1 -835 4 -37 7 -72
21 -210 3 -27 7 -61 10 -75 3 -14 7 -43 9 -65 3 -22 8 -56 12 -75 4 -19 8 -39
8 -45 1 -5 4 -23 8 -40 4 -16 9 -43 12 -60 26 -162 166 -618 236 -772 10 -23
19 -49 19 -57 0 -8 5 -16 11 -18 5 -2 11 -10 12 -18 2 -8 17 -46 35 -84 18
-37 32 -72 32 -76 0 -5 3 -10 8 -12 4 -2 27 -43 51 -93 25 -49 50 -93 55 -97
6 -4 7 -8 2 -8 -5 0 -2 -8 6 -17 8 -10 28 -43 44 -73 16 -30 37 -63 47 -74 9
-11 17 -23 17 -27 0 -8 129 -201 140 -209 4 -3 13 -15 19 -28 7 -13 19 -31 27
-40 9 -9 43 -53 77 -97 34 -44 72 -91 85 -105 28 -31 37 -41 98 -115 27 -33
65 -76 84 -96 19 -20 65 -68 103 -107 37 -38 67 -67 67 -64 0 4 8 -5 17 -18 9
-14 24 -30 33 -37 20 -14 106 -90 138 -120 12 -13 25 -23 28 -23 3 0 11 -6 18
-12 32 -32 153 -127 226 -178 12 -8 48 -34 81 -57 32 -24 61 -43 64 -43 3 0
28 -16 55 -35 27 -19 52 -35 54 -35 2 0 34 -18 70 -40 129 -78 496 -256 519
-252 4 1 7 -3 7 -9 0 -5 5 -7 11 -3 6 3 14 2 18 -3 3 -5 80 -33 171 -63 91
-29 172 -56 180 -60 8 -4 40 -13 70 -20 30 -7 61 -17 68 -23 6 -5 12 -7 12 -4
0 2 33 -4 73 -15 39 -11 90 -24 112 -30 22 -5 47 -11 55 -13 8 -2 102 -27 208
-55 l193 -51 462 4 c254 1 478 6 497 11 19 4 41 8 48 8 6 1 12 4 12 8 0 3 10
6 23 7 23 1 53 7 122 24 22 5 51 12 65 15 29 6 183 45 287 73 40 11 80 24 90
29 10 6 21 10 26 10 4 1 33 9 65 18 31 10 60 18 65 20 4 1 10 3 15 4 4 1 10 2
15 1 4 0 7 3 7 9 0 5 9 10 20 10 12 0 34 7 50 15 17 9 33 16 37 16 5 1 18 5
31 10 13 5 30 9 38 9 8 0 14 5 14 10 0 6 7 10 15 10 23 0 412 174 425 190 3 3
21 12 40 20 19 8 37 17 40 20 3 4 40 26 84 51 135 76 166 95 184 110 10 8 24
18 32 22 16 8 43 26 110 72 23 17 52 37 64 45 12 8 33 25 46 38 13 12 30 22
37 22 7 0 13 4 13 8 0 4 21 24 48 44 26 20 61 49 79 65 18 15 58 51 89 78 108
94 364 359 364 376 0 4 3 9 8 11 18 8 202 241 202 257 0 5 4 11 8 13 5 2 34
41 65 88 31 47 61 90 65 95 9 11 99 161 140 235 42 74 52 94 52 107 0 6 4 13
9 15 10 3 171 336 171 352 0 2 6 19 14 37 8 19 14 37 15 42 0 4 8 22 17 39 25
47 132 353 138 393 1 6 4 15 8 20 3 6 12 30 19 55 15 53 13 46 23 90 5 19 13
41 18 48 6 6 8 12 5 12 -3 0 2 26 10 58 15 59 20 79 29 122 6 27 33 155 40
185 2 11 7 36 10 55 5 32 9 47 23 90 2 8 6 215 8 460 3 329 1 463 -9 515 -7
39 -13 75 -14 80 -1 6 -3 12 -4 15 -3 8 -7 31 -14 75 -4 22 -11 56 -16 75 -5
19 -12 51 -15 70 -11 74 -62 324 -80 390 -2 8 -11 44 -20 80 -8 36 -18 72 -22
80 -3 8 -7 20 -9 27 -4 19 -25 86 -34 108 -4 11 -14 40 -21 65 -7 25 -15 50
-19 55 -3 6 -12 28 -19 50 -7 22 -16 49 -21 60 -5 11 -32 76 -61 145 -49 116
-203 429 -218 440 -3 3 -14 21 -23 40 -10 19 -38 67 -63 105 -25 39 -48 77
-52 85 -4 8 -15 24 -25 34 -10 11 -18 26 -18 33 0 7 -4 13 -8 13 -4 0 -16 15
-27 33 -10 17 -21 34 -25 37 -3 3 -22 28 -41 55 -18 28 -36 52 -40 55 -3 3
-32 39 -65 80 -32 41 -63 80 -69 86 -5 6 -28 33 -50 59 -44 54 -328 340 -390
395 -22 19 -65 55 -95 80 -30 25 -61 51 -69 58 -8 8 -39 32 -70 55 -31 22 -61
46 -68 51 -34 30 -43 36 -51 36 -5 0 -17 9 -27 20 -10 11 -24 20 -31 20 -7 0
-14 4 -16 9 -3 9 -209 147 -293 196 -27 17 -59 35 -70 41 -30 18 -349 179
-355 180 -3 0 -27 10 -55 23 -27 13 -54 24 -60 25 -5 2 -26 9 -45 18 -19 8
-71 27 -115 42 -44 15 -89 31 -100 36 -36 15 -89 32 -120 37 -16 3 -36 10 -42
15 -7 6 -13 8 -13 5 0 -4 -18 0 -40 8 -22 8 -42 14 -45 15 -3 0 -6 0 -7 1 -7
2 -36 7 -65 12 -17 3 -35 7 -40 10 -4 3 -24 8 -43 11 -19 3 -66 12 -105 20
-38 8 -88 17 -110 20 -22 3 -51 8 -65 11 -14 2 -54 7 -90 10 -36 3 -89 9 -118
14 -52 8 -645 15 -653 7z m351 -2156 c3 -1 9 -2 14 -1 6 1 125 -19 191 -33 38
-8 136 -41 180 -61 30 -13 55 -21 58 -19 2 3 10 -2 17 -11 7 -8 21 -15 31 -15
11 0 19 -3 19 -8 0 -4 23 -18 50 -31 28 -13 50 -27 50 -32 0 -4 10 -11 23 -15
12 -4 24 -9 27 -13 3 -3 30 -25 60 -47 82 -62 241 -223 307 -312 15 -20 30
-39 33 -42 20 -20 70 -91 70 -99 0 -6 5 -11 10 -11 6 0 10 -7 10 -15 0 -8 3
-15 8 -15 4 0 18 -20 32 -45 14 -25 27 -45 30 -45 3 0 11 -15 19 -32 8 -18 17
-35 20 -38 12 -10 121 -237 152 -315 33 -85 68 -187 75 -220 2 -11 8 -31 13
-45 12 -34 32 -124 46 -205 3 -16 8 -37 10 -45 2 -8 6 -37 10 -65 3 -27 8 -70
12 -95 14 -107 6 -515 -12 -611 -2 -9 -6 -40 -10 -70 -4 -30 -9 -57 -11 -61
-3 -4 -7 -35 -9 -68 -3 -34 -7 -65 -10 -70 -3 -4 -7 -23 -10 -41 -2 -19 -9
-51 -14 -71 -5 -20 -6 -39 -3 -42 3 -4 0 -6 -7 -6 -7 0 -10 -4 -7 -9 3 -5 -11
-60 -31 -122 -20 -63 -38 -118 -39 -124 -10 -40 -97 -228 -165 -355 -37 -70
-165 -256 -229 -334 -85 -104 -206 -227 -280 -283 -76 -59 -180 -126 -180
-116 0 3 -8 -1 -17 -9 -42 -35 -281 -126 -344 -131 -10 -1 -19 -4 -19 -7 0 -3
-8 -6 -17 -7 -17 0 -86 -9 -148 -18 -43 -6 -211 -6 -275 0 -30 3 -69 7 -86 9
-17 1 -36 6 -43 10 -7 5 -15 6 -18 3 -3 -3 -17 -1 -32 5 -14 6 -33 11 -41 12
-29 4 -105 28 -116 37 -6 5 -14 6 -17 2 -4 -3 -16 2 -28 13 -12 10 -22 18 -23
16 -3 -7 -126 46 -136 58 -3 4 -13 9 -23 13 -10 4 -59 34 -108 68 -114 78
-263 222 -369 358 -14 17 -30 37 -35 44 -6 7 -22 28 -35 47 -13 19 -29 38 -35
42 -6 5 -6 8 0 8 6 0 6 3 0 8 -13 9 -46 60 -44 68 0 4 -3 10 -9 13 -8 6 -66
101 -67 111 -1 3 -12 25 -25 50 -27 50 -63 133 -86 195 -8 22 -17 47 -21 55
-3 8 -7 17 -7 20 -2 12 -29 97 -36 115 -5 11 -14 45 -21 75 -6 30 -15 66 -20
80 -5 14 -11 41 -14 60 -3 19 -10 58 -15 85 -13 66 -18 100 -25 160 -3 28 -7
60 -10 73 -2 13 -7 63 -11 110 -3 48 -8 105 -10 127 -5 58 -5 414 0 455 14
107 17 130 26 185 6 33 12 71 15 85 4 14 8 36 11 50 24 123 124 411 160 465 8
11 14 27 14 36 0 10 3 19 8 21 4 2 21 30 37 63 17 33 42 79 58 101 15 23 27
45 27 48 0 4 5 12 10 19 6 7 37 51 71 98 33 48 72 100 87 117 15 17 47 54 72
84 55 64 140 148 200 197 25 20 47 39 48 44 2 4 10 7 17 7 7 0 15 4 17 8 5 12
143 95 213 127 101 46 237 91 304 100 18 3 36 7 40 9 3 2 35 7 71 11 36 4 66
8 67 9 4 3 247 -1 253 -4z"/>
<path d="M21207 20764 c-2 -2 -12 -5 -23 -7 -25 -5 -56 -18 -72 -31 -41 -33
-77 -76 -94 -111 -10 -22 -23 -47 -27 -55 -19 -32 -146 -295 -146 -303 0 -4
-7 -12 -15 -17 -8 -5 -12 -10 -8 -10 4 0 -17 -49 -47 -110 -31 -60 -55 -113
-54 -116 0 -4 -3 -10 -8 -13 -10 -8 -193 -375 -193 -389 0 -6 -3 -12 -7 -14
-7 -3 -187 -356 -188 -368 -2 -12 -46 -89 -55 -95 -6 -4 -8 -10 -5 -15 3 -5
-2 -15 -10 -24 -9 -8 -16 -19 -15 -23 0 -12 -264 -537 -273 -544 -5 -3 -8 -9
-8 -13 1 -10 -43 -101 -51 -104 -5 -2 -8 -12 -8 -23 0 -10 -4 -19 -10 -19 -5
0 -10 -9 -10 -20 0 -11 -4 -20 -10 -20 -5 0 -10 -9 -10 -20 0 -11 -5 -20 -10
-20 -6 0 -9 -3 -8 -7 1 -5 -11 -33 -27 -63 -16 -30 -30 -57 -30 -60 -1 -3 -26
-54 -57 -115 -31 -60 -100 -198 -154 -305 -54 -107 -102 -198 -107 -201 -5 -3
-8 -9 -7 -13 2 -10 -72 -161 -82 -164 -4 -2 -8 -8 -8 -13 0 -10 -44 -100 -109
-224 -18 -35 -46 -71 -67 -85 -19 -14 -42 -31 -50 -38 -24 -22 -39 -8 -77 70
l-35 73 -2 715 c-4 2306 -9 2843 -26 2859 -10 10 -2444 6 -2445 -4 -1 -19 -8
-2581 -13 -5180 -3 -1441 -6 -2737 -6 -2880 -1 -279 1 -303 30 -350 33 -54 57
-60 224 -59 83 1 162 2 176 3 56 2 76 2 90 2 8 -1 29 -1 45 0 17 0 35 0 40 0
145 -6 202 -5 213 2 7 6 12 6 12 0 0 -11 1675 -11 1686 0 10 10 11 827 1 827
-5 0 -5 5 -1 12 10 16 11 1008 1 1008 -5 0 -5 5 -1 12 6 10 10 308 4 333 -1 6
-1 15 0 20 6 28 4 105 -3 105 -5 0 -5 5 -1 12 8 13 8 358 -1 366 -2 3 0 11 6
18 7 8 7 14 0 18 -7 4 -7 15 -1 30 5 13 7 26 4 28 -6 7 -6 59 -1 433 4 319 5
333 31 429 42 156 30 154 159 24 86 -87 121 -129 147 -183 19 -38 38 -74 43
-80 4 -5 22 -39 41 -75 18 -36 52 -101 76 -145 24 -44 60 -113 81 -154 21 -41
43 -79 49 -85 5 -5 10 -18 10 -28 0 -10 4 -18 8 -18 4 0 15 -15 23 -32 17 -38
133 -259 159 -303 10 -16 43 -79 75 -140 32 -60 76 -144 98 -185 22 -41 55
-104 74 -140 19 -36 39 -71 45 -77 6 -7 7 -13 3 -13 -4 0 -2 -6 4 -14 11 -13
32 -52 94 -171 17 -33 36 -67 43 -75 7 -8 13 -18 13 -23 1 -8 40 -87 71 -142
42 -75 84 -160 82 -167 -1 -5 2 -8 6 -8 5 0 19 -24 33 -52 13 -29 27 -54 32
-56 4 -2 7 -7 7 -12 0 -4 16 -36 34 -69 19 -34 32 -61 28 -61 -4 0 -2 -4 3 -8
6 -4 23 -32 38 -62 28 -53 89 -170 187 -355 50 -96 132 -251 183 -350 17 -33
34 -62 37 -65 3 -3 27 -50 55 -105 58 -117 109 -177 179 -210 50 -23 57 -24
292 -21 132 1 245 6 252 10 7 4 12 3 12 -1 0 -5 15 -8 33 -6 44 4 547 13 1547
29 424 6 746 13 768 16 6 1 12 5 12 10 0 5 5 6 10 3 18 -11 11 10 -20 58 -16
26 -30 52 -30 57 0 6 -3 10 -7 10 -5 0 -13 10 -19 23 -23 49 -59 112 -66 115
-5 2 -8 10 -8 18 0 8 -4 14 -8 14 -5 0 -14 16 -22 35 -8 19 -17 35 -21 35 -4
0 -9 6 -11 13 -2 7 -37 70 -78 140 -41 70 -83 143 -93 162 -9 19 -22 35 -29
35 -6 0 -9 3 -5 6 3 3 -7 27 -22 52 -15 26 -34 58 -42 72 -8 14 -16 27 -19 30
-6 6 -27 43 -66 118 -16 28 -32 52 -36 52 -4 0 -8 9 -8 20 0 11 -4 20 -8 20
-5 0 -15 12 -23 28 -8 15 -44 78 -81 141 -38 62 -68 118 -68 122 0 5 -3 9 -7
9 -5 0 -19 23 -32 50 -14 28 -29 50 -33 50 -4 0 -8 5 -8 10 0 6 -25 52 -55
102 -30 50 -55 92 -55 94 0 1 -22 39 -50 84 -27 45 -50 86 -50 91 0 5 -4 9
-10 9 -5 0 -10 4 -10 9 0 5 -38 73 -85 152 -47 78 -85 146 -85 150 0 5 -4 9
-8 9 -4 0 -13 12 -20 28 -7 15 -18 36 -25 47 -7 11 -32 54 -57 95 -24 41 -53
89 -63 105 -9 17 -20 38 -23 48 -4 9 -10 17 -15 17 -5 0 -9 4 -9 10 0 5 -16
34 -35 64 -19 30 -35 57 -35 60 0 3 -20 37 -45 76 -25 39 -45 72 -45 75 0 2
-16 29 -35 59 -19 30 -35 58 -35 62 0 4 -11 21 -23 38 -13 17 -26 36 -28 41
-5 11 -68 121 -105 180 -13 22 -28 49 -33 60 -5 12 -16 27 -25 34 -9 7 -16 18
-16 24 0 5 -27 54 -60 107 -33 53 -60 102 -60 109 0 6 -4 11 -10 11 -5 0 -10
4 -10 9 0 5 -18 38 -40 72 -22 35 -46 79 -54 97 -8 17 -20 32 -25 32 -6 0 -11
8 -11 19 0 10 -7 24 -15 31 -8 7 -15 19 -15 26 0 8 -4 14 -9 14 -5 0 -11 8
-15 18 -3 9 -11 26 -18 37 -36 58 -68 111 -141 234 l-80 136 -1 75 c-1 58 4
84 20 115 48 89 59 110 64 115 3 3 10 14 16 25 41 75 67 121 74 130 4 6 21 35
37 65 58 107 68 125 73 130 4 4 18 29 64 115 6 11 13 22 16 25 3 3 12 19 20
35 8 17 17 32 20 35 10 10 51 85 61 113 6 15 15 27 20 27 5 0 9 7 9 15 0 8 4
15 8 15 5 0 9 6 9 13 0 7 9 27 20 43 25 37 233 402 233 410 0 3 14 25 30 49
17 24 30 46 30 48 0 2 23 44 52 93 28 49 60 105 70 124 10 19 23 42 28 50 22
35 86 149 105 186 11 21 23 41 26 44 7 6 36 59 45 83 3 9 10 17 15 17 5 0 9 9
9 20 0 11 3 20 8 20 4 0 18 24 32 53 14 28 33 61 43 71 9 11 17 25 17 32 0 7
6 19 13 26 7 7 23 36 37 63 14 28 28 52 31 55 3 3 19 30 36 60 17 30 45 80 62
110 18 30 35 63 38 73 3 9 9 17 14 17 5 0 9 9 9 19 0 11 4 21 9 23 4 2 25 35
46 73 21 39 45 78 53 88 8 9 12 17 8 17 -4 0 5 15 19 34 15 19 25 36 24 38 -2
2 15 35 38 73 22 39 51 90 64 115 13 25 26 47 29 50 10 9 99 170 105 190 4 11
11 20 16 20 5 0 9 5 9 11 0 6 9 24 21 40 11 16 17 29 13 29 -4 0 0 8 8 18 9 9
28 41 43 70 15 29 31 55 36 58 5 3 7 10 4 15 -4 5 -2 9 4 9 5 0 13 9 16 21 6
17 73 139 105 189 5 8 20 35 33 60 13 25 36 67 50 93 15 26 27 49 27 50 0 4
-2809 5 -2813 1z"/>
<path d="M2 16502 l3 -4227 55 -12 c104 -23 168 -25 1222 -26 l1058 -2 -3 60
c-2 33 0 72 4 88 4 15 5 27 1 27 -9 0 -7 294 2 309 4 6 4 11 -1 11 -9 0 -9
759 0 784 4 9 3 16 -1 16 -9 0 -8 921 1 944 4 9 3 16 -1 16 -9 0 -8 921 1 944
4 9 3 16 -1 16 -9 0 -8 921 1 944 4 9 3 16 -1 16 -4 0 -6 100 -4 222 1 123 2
292 3 376 0 83 1 152 3 152 3 0 51 -62 108 -137 56 -76 105 -140 108 -143 3
-3 66 -86 140 -185 74 -99 138 -184 142 -190 15 -19 63 -83 82 -110 11 -14 27
-35 35 -45 9 -10 23 -28 31 -39 33 -48 243 -326 249 -331 3 -3 22 -27 41 -55
19 -27 38 -54 43 -60 5 -5 94 -125 198 -265 105 -140 199 -265 210 -277 10
-13 16 -23 11 -23 -4 0 -2 -4 4 -8 7 -4 48 -56 92 -117 45 -60 85 -115 90
-121 5 -6 27 -35 48 -65 21 -30 41 -56 44 -59 7 -6 258 -344 290 -390 13 -19
27 -37 30 -40 3 -3 17 -21 30 -40 14 -19 28 -39 33 -45 7 -10 239 -323 275
-373 9 -13 35 -48 57 -78 22 -29 51 -69 65 -89 14 -20 32 -44 40 -54 8 -11 33
-44 55 -75 52 -74 170 -235 191 -261 8 -11 23 -32 32 -47 9 -16 20 -28 24 -28
4 0 8 -5 8 -10 0 -6 5 -16 10 -23 34 -39 110 -147 110 -156 0 -6 4 -11 8 -11
4 0 16 -13 25 -30 10 -16 23 -35 30 -42 7 -7 28 -35 47 -63 19 -27 37 -51 42
-53 4 -2 8 -9 8 -15 0 -7 11 -25 25 -40 14 -15 22 -27 18 -27 -4 0 -3 -4 3 -8
6 -4 26 -29 44 -57 19 -27 37 -51 42 -53 4 -2 8 -8 8 -13 0 -5 6 -17 14 -26 8
-10 99 -130 202 -268 102 -137 194 -258 204 -268 17 -18 60 -19 1086 -19 588
1 1085 1 1104 1 l35 1 0 4234 c0 2329 -3 4238 -7 4242 -4 3 -520 7 -1147 8
-1006 1 -1140 -1 -1143 -14 -2 -8 -3 -1064 -3 -2346 l0 -2331 -40 45 c-52 59
-63 72 -104 122 -19 24 -40 48 -46 54 -5 6 -30 36 -55 66 -25 30 -48 57 -52
58 -5 2 -8 10 -8 17 0 7 -4 15 -9 17 -8 3 -45 46 -191 228 -16 19 -85 107
-155 195 -70 88 -137 174 -151 190 -49 63 -120 154 -139 181 -11 15 -31 42
-45 58 -14 17 -29 36 -33 41 -4 6 -62 82 -128 170 -66 88 -126 163 -132 167
-7 4 -9 8 -5 8 7 0 2 7 -50 68 -12 15 -25 35 -28 45 -3 9 -9 17 -14 17 -5 0
-18 15 -29 33 -11 19 -31 45 -43 59 -13 13 -39 47 -57 74 -19 27 -38 51 -41
54 -3 3 -30 39 -60 80 -30 41 -57 77 -60 80 -3 3 -69 88 -145 190 -77 102
-145 192 -152 200 -6 8 -30 40 -52 70 -22 30 -53 70 -68 89 -15 19 -35 44 -43
57 -22 33 -136 183 -173 228 -18 21 -36 46 -42 55 -5 9 -18 25 -27 36 -28 34
-118 154 -118 159 0 2 -9 15 -20 28 -60 71 -110 138 -110 147 0 6 -4 11 -8 11
-5 0 -24 21 -42 48 -19 26 -40 53 -47 60 -7 8 -18 23 -24 34 -6 11 -19 29 -29
41 -10 12 -96 123 -190 247 -94 124 -176 232 -183 240 -7 8 -23 31 -37 50 -25
35 -46 63 -65 84 -6 6 -22 27 -35 46 -13 19 -27 37 -30 40 -3 3 -17 21 -30 40
-13 19 -27 37 -30 40 -4 3 -26 32 -51 65 -24 33 -51 69 -59 80 -8 11 -42 47
-75 80 -48 48 -75 65 -128 84 -37 13 -70 21 -73 18 -4 -3 -17 -2 -30 3 -13 5
-26 6 -29 0 -3 -5 -18 -5 -35 0 -19 5 -30 5 -30 -1 0 -6 -6 -7 -12 -2 -7 4
-464 9 -1016 10 l-1002 2 2 -4227z"/>
<path d="M10008 19784 c-2 -579 1 -924 7 -924 5 0 4 -5 -2 -11 -6 -6 -9 -18
-6 -28 4 -14 16 -17 74 -16 38 0 69 -3 69 -8 0 -4 5 -5 12 -1 17 11 181 11
196 1 6 -5 12 -6 12 -1 0 5 59 9 130 9 72 0 130 -4 130 -8 0 -5 5 -5 12 -1 18
12 112 11 120 -1 5 -7 8 -7 8 0 0 6 37 9 98 7 53 -1 102 -2 107 -2 6 0 38 1
73 3 34 1 62 -1 62 -6 0 -4 5 -5 12 -1 17 11 181 11 196 1 6 -5 12 -6 12 -1 0
11 290 11 308 0 6 -4 12 -4 12 1 0 4 59 8 130 8 72 0 130 -4 130 -8 0 -5 5 -5
12 -1 18 12 112 11 120 -1 5 -7 8 -7 8 0 0 6 37 9 98 7 53 -1 102 -2 107 -2 6
0 38 1 73 3 34 1 62 -1 62 -6 0 -4 5 -5 12 -1 17 11 181 11 196 1 6 -5 12 -6
12 -1 0 11 290 11 308 0 6 -4 12 -4 12 1 0 4 59 8 130 8 72 0 130 -4 130 -8 0
-5 5 -5 12 -1 18 12 112 11 120 -1 5 -7 8 -7 8 0 0 6 37 9 98 7 53 -1 102 -2
107 -2 6 0 38 1 73 3 34 1 62 -1 62 -6 0 -4 5 -5 12 -1 17 11 181 11 196 1 6
-5 12 -6 12 -1 0 11 290 11 308 0 6 -4 12 -4 12 1 0 4 59 8 130 8 72 0 130 -4
130 -8 0 -5 5 -5 12 -1 18 12 112 11 120 -1 5 -7 8 -7 8 0 0 6 37 9 98 7 53
-1 102 -2 107 -2 6 0 38 1 73 3 34 1 62 -2 62 -7 0 -5 5 -5 13 0 6 5 55 8 107
7 191 -5 187 -6 189 31 1 17 2 49 1 71 0 22 0 63 1 90 1 28 1 57 0 65 -1 8 -1
24 -1 35 1 11 1 27 1 35 -2 59 1 155 4 158 2 3 0 12 -5 22 -5 10 -6 20 -3 24
4 3 6 25 5 49 -2 23 -2 65 -1 92 1 28 1 57 0 65 -1 8 -1 24 -1 35 1 11 1 27 1
35 -2 59 1 155 4 158 2 3 0 12 -5 22 -5 10 -6 20 -3 24 4 3 6 25 5 49 -2 23
-2 65 -1 92 1 28 1 57 0 65 -1 8 -1 24 -1 35 1 11 1 27 1 35 -2 59 1 155 4
158 2 3 0 12 -5 22 -5 10 -6 20 -3 24 4 3 6 25 5 49 -3 60 -2 140 3 147 2 3 0
12 -5 20 -4 7 -5 23 0 34 4 12 4 30 0 41 -4 11 -4 29 0 41 5 11 4 28 -1 37 -7
12 -6 17 2 17 9 0 9 3 0 14 -10 11 -425 13 -2631 13 l-2620 0 -2 -923z"/>
<path d="M10016 17460 c-1 -3 -2 -441 -2 -975 l1 -970 2625 0 2625 0 3 975 2
975 -2626 0 c-1444 0 -2627 -2 -2628 -5z"/>
<path d="M10048 14199 c-15 -4 -28 -6 -30 -4 -3 3 -2 -1919 1 -1937 0 -5 1182
-8 2626 -8 l2625 0 0 974 c0 946 -1 974 -19 979 -10 2 -25 1 -32 -4 -8 -4 -19
-3 -26 3 -9 7 -13 7 -13 0 0 -11 -18 -11 -37 1 -6 4 -14 3 -18 -3 -4 -6 -11
-7 -18 -3 -14 9 -87 10 -87 1 0 -8 -21 -5 -37 5 -6 4 -14 3 -18 -3 -4 -6 -11
-7 -18 -3 -14 9 -87 10 -87 1 0 -8 -21 -5 -37 5 -6 4 -14 3 -18 -3 -4 -6 -11
-7 -18 -3 -14 9 -87 10 -87 1 0 -8 -21 -5 -37 5 -6 4 -14 3 -18 -3 -4 -6 -11
-7 -18 -3 -14 9 -87 10 -87 1 0 -8 -21 -5 -37 5 -6 4 -14 3 -18 -3 -4 -6 -11
-7 -18 -3 -14 9 -87 10 -87 1 0 -8 -21 -5 -37 5 -6 4 -14 3 -18 -3 -4 -6 -11
-7 -18 -3 -14 9 -87 10 -87 1 0 -8 -21 -5 -37 5 -6 4 -14 3 -18 -3 -4 -6 -11
-7 -18 -3 -12 8 -142 7 -155 -1 -4 -2 -14 -1 -21 4 -8 4 -27 4 -42 0 -16 -5
-31 -5 -33 -1 -5 8 -99 6 -121 -3 -8 -3 -17 -1 -20 4 -3 6 -15 6 -30 0 -15 -6
-27 -6 -30 0 -3 6 -15 6 -29 0 -13 -5 -26 -6 -30 -3 -7 7 -111 7 -123 0 -5 -3
-15 -2 -22 3 -8 4 -27 4 -42 0 -16 -5 -31 -5 -33 -1 -5 8 -99 6 -121 -3 -8 -3
-17 -1 -20 4 -3 6 -15 6 -30 0 -15 -6 -27 -6 -30 0 -3 6 -15 6 -29 0 -13 -5
-26 -6 -30 -3 -7 7 -111 7 -123 0 -5 -3 -15 -2 -22 3 -8 4 -27 4 -42 0 -16 -5
-31 -5 -33 -1 -5 8 -99 6 -121 -3 -8 -3 -17 -1 -20 4 -3 6 -15 6 -30 0 -15 -6
-27 -6 -30 0 -3 6 -15 6 -29 0 -13 -5 -26 -6 -30 -3 -7 7 -111 7 -123 0 -5 -3
-15 -2 -22 3 -8 4 -27 4 -42 0 -16 -5 -31 -5 -33 -1 -5 8 -99 6 -121 -3 -8 -3
-17 -1 -20 4 -3 6 -15 6 -30 0 -15 -6 -27 -6 -30 0 -3 6 -15 6 -29 0 -13 -5
-26 -6 -30 -3 -7 7 -111 7 -123 0 -5 -3 -15 -2 -22 3 -8 4 -27 4 -42 0 -16 -5
-31 -5 -33 -1 -5 8 -99 6 -121 -3 -8 -3 -17 -1 -20 4 -3 6 -15 6 -30 0 -15 -6
-27 -6 -30 0 -3 6 -15 6 -29 0 -13 -5 -26 -6 -30 -3 -3 3 -30 5 -61 4 -79 -2
-76 -2 -117 1 -21 2 -38 0 -38 -3 0 -9 -21 -6 -37 4 -6 4 -14 3 -18 -3 -4 -6
-11 -7 -18 -3 -14 9 -87 10 -87 1 0 -8 -21 -5 -37 5 -6 4 -14 3 -18 -3 -4 -6
-11 -7 -18 -3 -14 9 -87 10 -87 1 0 -8 -21 -5 -37 5 -6 4 -14 3 -18 -3 -4 -6
-11 -7 -18 -3 -14 9 -87 10 -87 1 0 -8 -21 -5 -37 5 -6 4 -14 3 -18 -3 -4 -6
-11 -7 -18 -3 -14 9 -87 10 -87 1 0 -8 -21 -5 -37 5 -6 4 -14 3 -18 -3 -4 -6
-11 -7 -18 -3 -14 9 -87 10 -87 1 0 -8 -21 -5 -37 5 -6 4 -14 3 -18 -3 -4 -6
-11 -7 -18 -3 -14 9 -87 10 -87 1 0 -8 -21 -5 -37 5 -6 4 -14 3 -18 -3 -4 -6
-11 -7 -18 -3 -14 9 -87 10 -87 1 0 -8 -21 -5 -37 5 -6 4 -14 3 -18 -3 -4 -7
-12 -7 -24 0 -11 6 -30 6 -50 0 -17 -5 -33 -5 -35 -1 -5 7 -99 6 -121 -3 -8
-2 -15 -1 -17 3 -2 4 -15 4 -30 0z"/>
</g>
</svg>
